<?xml version="1.0" standalone="no"?>
<!DOCTYPE svg PUBLIC "-//W3C//DTD SVG 20010904//EN"
 "http://www.w3.org/TR/2001/REC-SVG-20010904/DTD/svg10.dtd">
<svg version="1.0" xmlns="http://www.w3.org/2000/svg"
 width="653.000000pt" height="653.000000pt" viewBox="0 0 653.000000 653.000000"
 preserveAspectRatio="xMidYMid meet">
<metadata>
Created by potrace 1.14, written by Peter Selinger 2001-2017
</metadata>
<g transform="translate(0.000000,653.000000) scale(0.100000,-0.100000)"
fill="#000000" stroke="none">
<path d="M568 4155 c-2 -1 -23 -5 -48 -8 -105 -13 -218 -74 -296 -160 -169
-188 -162 -474 16 -656 30 -31 76 -67 103 -81 26 -14 47 -29 47 -34 0 -5 -21
-88 -46 -185 -25 -97 -47 -183 -49 -191 -2 -8 -28 -112 -59 -231 -31 -119 -56
-223 -56 -230 0 -12 70 -14 415 -14 228 0 415 1 415 3 0 2 -30 119 -66 260
-36 141 -68 265 -70 275 -2 10 -6 27 -9 37 -3 10 -8 27 -10 37 -2 10 -17 69
-33 131 l-29 112 56 34 c181 111 268 308 225 513 -36 169 -169 315 -333 362
-60 18 -165 34 -173 26z"/>
<path d="M2640 3776 c-130 -34 -227 -159 -247 -316 -9 -70 -9 -322 0 -380 19
-118 89 -225 177 -270 141 -72 341 -39 433 71 78 94 97 179 93 423 -4 234 -25
303 -117 396 -74 73 -224 107 -339 76z m194 -184 c34 -31 56 -90 61 -172 2
-30 5 -57 5 -60 4 -16 -2 -231 -7 -265 -9 -65 -40 -121 -78 -139 -84 -40 -164
-13 -204 69 -23 47 -25 62 -26 235 -2 182 2 225 30 286 18 39 35 53 81 69 43
14 108 4 138 -23z"/>
<path d="M3557 3779 c-142 -34 -234 -150 -253 -322 -9 -80 -9 -308 1 -371 14
-99 61 -194 117 -241 106 -89 308 -98 429 -18 70 46 126 151 132 248 l2 40
-90 0 c-49 1 -94 0 -100 -2 -5 -2 -11 -20 -11 -41 -2 -55 -30 -108 -65 -122
-42 -18 -124 -16 -153 4 -33 21 -47 48 -61 116 -12 58 -12 360 -1 420 18 91
64 134 144 132 91 -1 125 -34 138 -130 l7 -52 97 0 98 0 -3 33 c-13 126 -81
239 -168 280 -70 34 -181 45 -260 26z"/>
<path d="M1662 3280 l0 -500 274 0 273 0 3 33 c2 17 2 55 0 82 l-4 50 -171 0
-172 0 -6 38 c-3 21 -3 40 1 42 5 3 4 21 0 40 -4 19 -4 37 0 40 4 3 4 21 0 40
-4 19 -4 37 0 40 4 3 4 21 0 40 -4 19 -5 37 -1 39 3 2 5 119 3 260 l-3 256
-98 0 -99 0 0 -500z"/>
<path d="M4180 3280 l0 -500 98 0 98 0 -1 143 c0 81 4 147 10 153 5 7 23 28
39 48 16 20 32 36 35 36 3 0 12 -15 20 -32 8 -18 43 -94 79 -168 35 -74 68
-145 73 -157 8 -22 14 -23 124 -23 63 0 115 3 115 6 0 7 -21 48 -130 259 -40
77 -90 175 -112 218 l-40 77 88 138 c49 75 112 173 141 217 l53 80 -118 3
c-111 3 -118 2 -132 -19 -19 -28 -69 -115 -115 -204 -21 -38 -43 -77 -50 -85
-7 -8 -25 -39 -40 -67 -16 -29 -31 -53 -34 -53 -3 0 -6 97 -5 215 l1 215 -99
0 -98 0 0 -500z"/>
<path d="M5022 3280 l0 -500 284 0 284 0 0 83 0 83 -184 -1 -184 -1 -1 138 -2
138 155 0 155 0 3 33 c2 17 1 53 0 80 l-4 47 -153 0 -154 0 -3 111 c-2 91 0
112 12 118 8 3 93 6 187 5 l173 -1 -1 84 -1 83 -283 0 -283 0 0 -500z"/>
<path d="M5778 3768 c-3 -11 -3 -955 1 -981 0 -5 81 -7 179 -5 210 5 260 19
341 96 40 39 112 152 97 152 -3 0 1 17 8 38 7 20 13 73 14 117 1 44 2 82 2 85
3 11 -1 128 -6 170 -11 98 -47 174 -112 238 -84 82 -145 100 -361 101 -122 2
-160 -1 -163 -11z m322 -162 c61 -10 98 -56 116 -145 8 -45 8 -308 -1 -363
-18 -106 -66 -147 -177 -151 l-63 -2 0 330 0 330 30 6 c17 4 37 5 45 4 8 -2
31 -6 50 -9z"/>
</g>
</svg>
